<svg width="512" height="512" viewBox="0 0 512 512" fill="none" xmlns="http://www.w3.org/2000/svg">
<g clip-path="url(#clip0_1_265)">
<path d="M143.842 334H176.213V367.146H143.842V334Z" fill="#123479"/>
<path d="M143.842 203.956H176.213V237.101H143.842V203.956Z" fill="#123479"/>
<path d="M143.842 399.022H176.213V432.169H143.842V399.022Z" fill="#123479"/>
<path d="M143.842 268.978H176.213V302.124H143.842V268.978Z" fill="#123479"/>
<path d="M79.594 268.978H111.965V302.124H79.594V268.978Z" fill="#123479"/>
<path d="M79.594 203.956H111.965V237.101H79.594V203.956Z" fill="#123479"/>
<path d="M79.594 334H111.965V367.146H79.594V334Z" fill="#123479"/>
<path d="M79.594 399.022H111.965V432.169H79.594V399.022Z" fill="#123479"/>
<path d="M208.09 399.022H240.461V432.169H208.09V399.022Z" fill="#123479"/>
<path d="M79.594 79.79H303.625V172.079H79.594V79.79Z" fill="#123479"/>
<path d="M272.338 268.978H303.625V302.124H272.338V268.978Z" fill="#123479"/>
<path d="M272.338 203.956H303.625V237.101H272.338V203.956Z" fill="#123479"/>
<path d="M367.058 0H15.516C6.947 0 0 6.947 0 15.516V496.484C0 505.053 6.947 512 15.516 512H367.058C375.627 512 382.574 505.053 382.574 496.484V15.516C382.574 6.947 375.627 0 367.058 0ZM335.501 448.106C335.501 456.908 328.365 464.044 319.563 464.044H63.656C54.854 464.044 47.718 456.908 47.718 448.106V63.852C47.718 55.05 54.854 47.914 63.656 47.914H319.563C328.365 47.914 335.501 55.05 335.501 63.852V448.106Z" fill="#123479"/>
<path d="M208.09 334H240.461V367.146H208.09V334Z" fill="#123479"/>
<path d="M208.09 268.978H240.461V302.124H208.09V268.978Z" fill="#123479"/>
<path d="M272.338 334H303.625V432.168H272.338V334Z" fill="#123479"/>
<path d="M208.09 203.956H240.461V237.101H208.09V203.956Z" fill="#123479"/>
<path d="M503.856 45.5821H491.675V15.7441C490.862 -5.14795 461.94 -5.13194 461.134 15.7441V45.5821H448.94C444.442 45.5821 440.796 49.3421 440.796 53.9791V113.616H512V53.9791C512 49.3421 508.354 45.5821 503.856 45.5821Z" fill="#123479"/>
<path d="M440.795 145.105H512V367.061H440.795V145.105Z" fill="#123479"/>
<path d="M440.795 432.221C440.795 449.764 445.386 467.011 454.073 482.095L468.927 507.889C470.383 510.418 473.016 511.977 475.868 511.999H475.93C478.759 511.999 481.387 510.485 482.869 507.997L497.983 482.629C507.153 467.239 512 449.557 512 431.495V398.55H440.795V432.221Z" fill="#123479"/>
</g>
<defs>
<clipPath id="clip0_1_265">
<rect width="512" height="512" fill="white"/>
</clipPath>
</defs>
</svg>
