<svg width="512" height="512" viewBox="0 0 512 512" fill="none" xmlns="http://www.w3.org/2000/svg">
<g clip-path="url(#clip0_1_176)">
<path d="M189.658 146.157C189.658 153.868 195.932 160.14 203.642 160.14H308.69C327.244 159.37 327.23 132.937 308.69 132.174H203.642C195.931 132.174 189.658 138.447 189.658 146.157Z" fill="#123479"/>
<path d="M72.1794 385.681C72.1794 418.435 90.5855 449.605 124.006 473.451C192.866 524.849 319.467 524.851 388.324 473.449C461.217 422.874 455.357 338.114 379.417 291.978C360.521 280.172 349.239 259.964 349.239 237.921V237.859C349.239 213.023 329.033 192.815 304.196 192.815H208.233C183.396 192.815 163.189 213.022 163.189 237.859C163.189 259.914 151.898 280.128 132.985 291.93C94.3429 316.048 72.1794 350.219 72.1794 385.681ZM205.329 339.489H211.17C218.618 306.658 248.016 282.066 283.069 282.066C292.082 282.066 299.388 289.373 299.388 298.385C299.388 307.397 292.081 314.703 283.069 314.703C266.201 314.703 251.68 324.92 245.353 339.488H283.069C304.721 340.35 304.705 371.272 283.069 372.126H245.353C251.68 386.694 266.202 396.91 283.069 396.91C292.082 396.91 299.388 404.217 299.388 413.229C299.388 422.242 292.081 429.548 283.069 429.548C248.017 429.548 218.619 404.957 211.17 372.125H205.329C183.677 371.265 183.693 340.343 205.329 339.489Z" fill="#123479"/>
<path d="M180.133 105.922C187.041 101.87 195.072 99.5354 203.642 99.5354H210.749V86.837C211.612 65.1848 242.533 65.2008 243.388 86.837V99.5364H272.209V65.2389C273.071 43.5866 303.993 43.6027 304.847 65.2389V99.5354H308.691C317.26 99.5354 325.291 101.87 332.199 105.922C343.059 99.6825 350.379 87.9768 350.379 74.554V35.8696C350.379 12.7724 328.86 -4.31379 306.374 0.961672C294.985 3.63443 281.293 7.59402 265.191 13.4349C235.947 24.0438 210.138 23.8287 191.64 20.9618C176.059 18.5472 161.953 30.453 161.953 46.2204V74.554C161.953 87.9768 169.273 99.6835 180.133 105.922Z" fill="#123479"/>
</g>
<defs>
<clipPath id="clip0_1_176">
<rect width="512" height="512" fill="white"/>
</clipPath>
</defs>
</svg>
