<svg width="512" height="512" viewBox="0 0 512 512" fill="none" xmlns="http://www.w3.org/2000/svg">
<g clip-path="url(#clip0_1_38)">
<path d="M100.785 341.29L101.166 507.152C101.172 509.832 103.345 512 106.025 512H124.886C149.146 512 168.811 492.334 168.811 468.075L168.419 341.29H100.785Z" fill="#123479"/>
<path d="M158.158 152.167H202.51V311.307H158.158V152.167Z" fill="#123479"/>
<path d="M128.175 311.307V152.167H83.6135C77.3031 152.167 72.188 157.282 72.188 163.593V299.876C72.188 306.194 77.3121 311.313 83.6295 311.302C98.2153 311.278 117.583 311.209 128.175 311.307Z" fill="#123479"/>
<path d="M0.183838 190.07V273.402C0.183838 282.8 7.80252 290.419 17.2002 290.419H43.0845V173.053H17.2002C7.80252 173.053 0.183838 180.672 0.183838 190.07Z" fill="#123479"/>
<path d="M216.462 371.932H198.403V401.915H216.462C236.353 401.123 236.338 372.717 216.462 371.932Z" fill="#123479"/>
<path d="M373.967 0.0171195C365.904 0.396904 359.7 7.34297 359.7 15.4154V49.8299C359.7 51.6529 358.773 53.3509 357.24 54.3364L232.493 134.533V326.124L357.06 399.426C358.696 400.388 359.7 402.145 359.7 404.043V438.474C360.436 458.712 388.714 459.016 389.683 438.898V14.9916C389.684 6.47146 382.576 -0.388651 373.967 0.0171195Z" fill="#123479"/>
<path d="M431.304 163.631C433.41 163.631 435.551 163.185 437.588 162.242L482.962 141.252C500.683 132.183 488.741 106.405 470.374 114.039L424.999 135.029C410.442 142.01 415.414 163.493 431.304 163.631Z" fill="#123479"/>
<path d="M496.902 212.037H446.822C426.931 212.83 426.946 241.236 446.822 242.02H496.902C516.793 241.229 516.778 212.822 496.902 212.037Z" fill="#123479"/>
<path d="M482.253 312.637L436.878 291.647C429.364 288.17 420.454 291.444 416.978 298.959C413.501 306.474 416.775 315.384 424.29 318.86L469.664 339.85C477.005 343.296 486.081 340.129 489.565 332.538C493.041 325.023 489.767 316.113 482.253 312.637Z" fill="#123479"/>
</g>
<defs>
<clipPath id="clip0_1_38">
<rect width="512" height="512" fill="white"/>
</clipPath>
</defs>
</svg>
