<svg width="512" height="512" viewBox="0 0 512 512" fill="none" xmlns="http://www.w3.org/2000/svg">
<g clip-path="url(#clip0_1_21)">
<path d="M335.197 192.627H363.938V451.057H471.657V192.627H501C507.075 192.627 512 187.702 512 181.627V127.397C512 124.293 510.689 121.335 508.391 119.25L425.189 43.7821C420.984 39.9691 414.57 39.9801 410.378 43.8081L327.777 119.277C325.497 121.361 324.197 124.308 324.197 127.398V181.628C324.197 187.702 329.122 192.627 335.197 192.627Z" fill="#123479"/>
<path d="M319.945 451.057V271.368C319.945 265.293 315.02 260.368 308.945 260.368H223.227C217.152 260.368 212.227 265.293 212.227 271.368V451.057H319.945Z" fill="#123479"/>
<path d="M496.013 481.845H34.097C31.834 481.845 30 480.011 30 477.748V289.04H77.873C98.13 288.305 98.415 260 78.297 259.04H30V233.018H58.824C79.083 232.282 79.364 203.977 59.248 203.018H30V176.996H58.824C79.083 176.26 79.364 147.955 59.248 146.996H30V120.974H58.824C79.083 120.238 79.364 91.933 59.248 90.974H30V64.951H77.873C98.13 64.216 98.415 35.911 78.297 34.951H30V15.509C29.264 -4.75095 0.959 -5.02995 0 15.085V496.844C0 505.128 6.716 511.844 15 511.844H496.437C516.564 510.88 516.261 482.576 496.013 481.845Z" fill="#123479"/>
<path d="M64.7041 332.703V451.058H172.422V332.703C172.422 326.628 167.497 321.703 161.422 321.703H75.7041C69.6281 321.703 64.7041 326.627 64.7041 332.703Z" fill="#123479"/>
</g>
<defs>
<clipPath id="clip0_1_21">
<rect width="512" height="512" fill="white"/>
</clipPath>
</defs>
</svg>
